<svg width="71" height="82" viewBox="0 0 71 82" fill="none" xmlns="http://www.w3.org/2000/svg">
<g filter="url(#filter0_d_19_124)">
<path d="M38.7138 12.5642L41.1438 9.777C45.9157 4.30371 53.6845 4.16824 58.4839 9.60999C60.3024 11.6766 61.511 14.3446 61.9397 17.2394C62.3684 20.1342 61.9956 23.1102 60.8739 25.7496C60.3358 27.0104 60.1546 28.4324 60.3552 29.8171C60.5561 31.2018 61.1288 32.48 61.9937 33.4732C63.5842 31.6448 64.8446 29.475 65.7036 27.0877C66.5625 24.7003 67.0031 22.1422 67 19.5596C66.9965 16.977 66.55 14.4204 65.6852 12.0358C64.8203 9.65127 63.5542 7.48554 61.9594 5.66235C55.2483 -1.99171 44.355 -1.8394 37.6627 5.83617L14.5006 32.402L12.5965 30.218C7.74364 24.6519 7.71271 15.5535 12.6512 10.0863C14.4791 8.06882 16.808 6.75181 19.3164 6.31709C21.8248 5.88237 24.3889 6.35135 26.655 7.65929C27.6893 8.26722 28.8647 8.48469 30.0132 8.28066C31.1617 8.07663 32.2246 7.46153 33.0502 6.5232L33.1092 6.45582C33.1276 6.43489 33.1422 6.40999 33.1521 6.38253C33.1621 6.35512 33.1672 6.32569 33.1672 6.29598C33.1672 6.26627 33.1621 6.23685 33.1521 6.20943C33.1422 6.18202 33.1276 6.15711 33.1092 6.13614C29.9213 2.57149 25.6493 0.569237 21.1971 0.553049C16.745 0.536864 12.462 2.50801 9.25439 6.04941C2.34493 13.6999 2.36962 26.4219 9.16065 34.2111L32.3159 60.7697L29.8562 63.591C25.0843 69.0642 17.3153 69.1997 12.5162 63.758C10.6976 61.6915 9.48911 59.0233 9.06038 56.1286C8.63168 53.2339 9.00426 50.2579 10.1258 47.6184C10.6639 46.3576 10.8453 44.9355 10.6446 43.551C10.4439 42.1662 9.87109 40.8879 9.00629 39.8948C7.41596 41.7233 6.15529 43.8929 5.2963 46.2802C4.4373 48.6677 3.99683 51.2255 4.00002 53.8084C4.00321 56.391 4.45001 58.9477 5.3149 61.332C6.1798 63.7168 7.44583 65.8825 9.04066 67.7056C15.7514 75.36 26.645 75.2081 33.3373 67.5321L56.5294 40.9309L58.4407 43.1231C63.2126 48.5964 63.3308 57.507 58.5863 63.0115C56.7847 65.0976 54.4584 66.4835 51.9347 66.9756C49.4109 67.4673 46.8163 67.0397 44.515 65.7531C43.4154 65.1356 42.175 64.9274 40.9673 65.1582C39.7596 65.3886 38.6448 66.0463 37.7789 67.039C39.3731 68.8632 41.2648 70.3093 43.3461 71.2945C45.4277 72.2797 47.6577 72.785 49.9096 72.7814C52.1612 72.7775 54.3903 72.265 56.4691 71.273C58.5482 70.281 60.4364 68.8288 62.0259 66.9996C68.6995 59.3025 68.5667 46.8077 61.8747 39.1321L38.7138 12.5642ZM35.7736 56.802L17.9592 36.3693L35.2549 16.5319L53.0692 36.9646L35.7736 56.802Z" fill="#18CDCA"/>
<path d="M29.358 44.1261H27.5114L32.8523 29.5806H34.6705L40.0114 44.1261H38.1648L33.8182 31.8818H33.7045L29.358 44.1261ZM30.0398 38.4443H37.483V40.0068H30.0398V38.4443Z" fill="#0A403F"/>
</g>
<defs>
<filter id="filter0_d_19_124" x="0" y="0" width="71" height="81.3684" filterUnits="userSpaceOnUse" color-interpolation-filters="sRGB">
<feFlood flood-opacity="0" result="BackgroundImageFix"/>
<feColorMatrix in="SourceAlpha" type="matrix" values="0 0 0 0 0 0 0 0 0 0 0 0 0 0 0 0 0 0 127 0" result="hardAlpha"/>
<feOffset dy="4"/>
<feGaussianBlur stdDeviation="2"/>
<feComposite in2="hardAlpha" operator="out"/>
<feColorMatrix type="matrix" values="0 0 0 0 0.5875 0 0 0 0 0.037698 0 0 0 0 0.499532 0 0 0 0.83 0"/>
<feBlend mode="normal" in2="BackgroundImageFix" result="effect1_dropShadow_19_124"/>
<feBlend mode="normal" in="SourceGraphic" in2="effect1_dropShadow_19_124" result="shape"/>
</filter>
</defs>
</svg>
