<svg width="90" height="95" viewBox="0 0 90 95" fill="none" xmlns="http://www.w3.org/2000/svg">
<g filter="url(#filter0_d_2_19)">
<path d="M49.1831 14.8986L52.346 11.5935C58.557 5.10332 68.6687 4.94268 74.9155 11.3955C77.2825 13.846 78.8556 17.0098 79.4136 20.4424C79.9715 23.875 79.4863 27.4041 78.0263 30.5338C77.326 32.0288 77.0901 33.7151 77.3512 35.3571C77.6127 36.999 78.3582 38.5147 79.4839 39.6924C81.554 37.5243 83.1946 34.9513 84.3126 32.1205C85.4306 29.2895 86.004 26.2562 86 23.1937C85.9955 20.1313 85.4143 17.0996 84.2886 14.2721C83.1629 11.4444 81.5149 8.87633 79.4392 6.7144C70.7042 -2.36176 56.5256 -2.18115 47.815 6.92051L17.6675 38.4221L15.1891 35.8324C8.87267 29.2321 8.83241 18.4433 15.2602 11.9603C17.6395 9.56797 20.6708 8.00628 23.9356 7.49078C27.2005 6.97529 30.538 7.53141 33.4875 9.08236C34.8337 9.80324 36.3636 10.0611 37.8585 9.81918C39.3533 9.57724 40.7368 8.84785 41.8113 7.73519L41.8882 7.65529C41.9121 7.63047 41.9311 7.60094 41.944 7.56839C41.957 7.53587 41.9636 7.50098 41.9636 7.46575C41.9636 7.43052 41.957 7.39563 41.944 7.36312C41.9311 7.33061 41.9121 7.30108 41.8882 7.27622C37.7388 3.04927 32.1784 0.674999 26.3835 0.655803C20.5887 0.636611 15.014 2.97399 10.839 7.17337C1.84578 16.2453 1.87792 31.331 10.717 40.5674L40.8556 72.0605L37.6541 75.4059C31.443 81.8961 21.331 82.0568 15.0845 75.604C12.7175 73.1536 11.1446 69.9896 10.5865 66.5571C10.0285 63.1246 10.5135 59.5956 11.9733 56.4657C12.6737 54.9706 12.9097 53.2843 12.6485 51.6427C12.3873 50.0006 11.6417 48.4847 10.5161 47.3071C8.44617 49.4753 6.8053 52.0481 5.68725 54.8788C4.56919 57.71 3.99587 60.7431 4.00002 63.8058C4.00418 66.8682 4.58573 69.9 5.71146 72.7273C6.8372 75.5551 8.48505 78.1232 10.5609 80.2851C19.2955 89.3617 33.4745 89.1815 42.1851 80.0794L72.3716 48.5357L74.8594 51.1352C81.0704 57.6255 81.2242 68.1916 75.0489 74.7188C72.7039 77.1925 69.676 78.8359 66.3912 79.4194C63.1063 80.0025 59.7291 79.4955 56.7338 77.9698C55.3026 77.2376 53.688 76.9907 52.1162 77.2644C50.5443 77.5376 49.0932 78.3174 47.9663 79.4946C50.0412 81.6577 52.5033 83.3725 55.2123 84.5408C57.9217 85.709 60.8243 86.3082 63.7554 86.304C66.686 86.2993 69.5874 85.6916 72.2931 84.5153C74.9993 83.3389 77.4569 81.6169 79.5258 79.4479C88.212 70.3207 88.0391 55.5044 79.329 46.4027L49.1831 14.8986ZM45.3561 67.3557L22.1692 43.1266L44.681 19.6034L67.8679 43.8325L45.3561 67.3557Z" fill="#18CDCA"/>
<path d="M38.1075 51.3889H35.7992L42.4754 33.207H44.7481L51.4242 51.3889H49.116L43.6827 36.0835H43.5407L38.1075 51.3889ZM38.9597 44.2866H48.2637V46.2397H38.9597V44.2866Z" fill="#0A403F"/>
</g>
<defs>
<filter id="filter0_d_2_19" x="0" y="0" width="90" height="95" filterUnits="userSpaceOnUse" color-interpolation-filters="sRGB">
<feFlood flood-opacity="0" result="BackgroundImageFix"/>
<feColorMatrix in="SourceAlpha" type="matrix" values="0 0 0 0 0 0 0 0 0 0 0 0 0 0 0 0 0 0 127 0" result="hardAlpha"/>
<feOffset dy="4"/>
<feGaussianBlur stdDeviation="2"/>
<feComposite in2="hardAlpha" operator="out"/>
<feColorMatrix type="matrix" values="0 0 0 0 0.5875 0 0 0 0 0.037698 0 0 0 0 0.499532 0 0 0 0.83 0"/>
<feBlend mode="normal" in2="BackgroundImageFix" result="effect1_dropShadow_2_19"/>
<feBlend mode="normal" in="SourceGraphic" in2="effect1_dropShadow_2_19" result="shape"/>
</filter>
</defs>
</svg>
