<svg width="20" height="20" viewBox="0 0 20 20" fill="none" xmlns="http://www.w3.org/2000/svg">
<path d="M19.388 0.404962C19.33 0.260474 19.2185 0.143915 19.0767 0.0795341C18.935 0.0151529 18.7738 0.00790636 18.6268 0.0593019C18.4799 0.110697 18.3584 0.216778 18.2876 0.355475C18.2169 0.494172 18.2023 0.654807 18.247 0.803962C19.176 3.47396 17.332 5.46796 15.926 6.53596L15.358 5.72196C15.167 5.44896 14.74 5.22196 14.408 5.21796L11.22 5.23196C10.8305 5.24372 10.4515 5.36051 10.123 5.56996L0.728987 12.157C0.510482 12.3107 0.361806 12.5448 0.315512 12.8079C0.269218 13.0711 0.329079 13.3419 0.481987 13.561L4.75099 19.669C5.07099 20.124 5.58199 20.069 6.03799 19.751L15.432 13.163C15.702 12.972 16.014 12.56 16.124 12.245L17.122 9.09996C17.232 8.78596 17.165 8.30696 16.974 8.03396L16.628 7.53796C18.516 6.09096 20.476 3.53396 19.388 0.404962ZM15.017 9.76296C14.8439 9.8841 14.6487 9.96996 14.4424 10.0156C14.2362 10.0613 14.023 10.0659 13.8149 10.0291C13.6069 9.9923 13.4082 9.9149 13.2301 9.80129C13.052 9.68768 12.898 9.54009 12.777 9.36696C12.5319 9.01662 12.4359 8.58335 12.5099 8.16226C12.584 7.74117 12.8221 7.36667 13.172 7.12096C13.4463 6.92878 13.7738 6.8271 14.1087 6.83015C14.4436 6.8332 14.7692 6.94082 15.04 7.13796C14.768 7.30196 14.581 7.39796 14.546 7.41296C14.422 7.47207 14.3218 7.57152 14.2618 7.69504C14.2017 7.81855 14.1854 7.95879 14.2155 8.09278C14.2456 8.22677 14.3204 8.34657 14.4274 8.43254C14.5345 8.51851 14.6677 8.56555 14.805 8.56596C14.891 8.56596 14.979 8.54596 15.062 8.50696C15.256 8.41496 15.464 8.30596 15.681 8.17696C15.7309 8.47702 15.6951 8.78508 15.5776 9.06567C15.4601 9.34626 15.2658 9.58796 15.017 9.76296Z" fill="#9701F0"/>
</svg>
