<svg width="20" height="21" viewBox="0 0 20 21" fill="none" xmlns="http://www.w3.org/2000/svg">
<path d="M10 0.083252C4.579 0.083252 0 4.85304 0 10.4999C0 16.1468 4.579 20.9166 10 20.9166C15.421 20.9166 20 16.1468 20 10.4999C20 4.85304 15.421 0.083252 10 0.083252ZM10 5.29159C11.727 5.29159 13 6.61659 13 8.41659C13 10.2166 11.727 11.5416 10 11.5416C8.274 11.5416 7 10.2166 7 8.41659C7 6.61659 8.274 5.29159 10 5.29159ZM4.894 15.4708C5.791 14.0958 7.287 13.1791 9 13.1791H11C12.714 13.1791 14.209 14.0958 15.106 15.4708C13.828 16.8958 12.015 17.7916 10 17.7916C7.985 17.7916 6.172 16.8958 4.894 15.4708Z" fill="#B0A1A1"/>
</svg>
